<svg xmlns="http://www.w3.org/2000/svg" xmlns:xlink="http://www.w3.org/1999/xlink" version="1.1" width="256" height="256" viewBox="0 0 256 256" xml:space="preserve">

<defs>
</defs>
<g style="stroke: none; stroke-width: 0; stroke-dasharray: none; stroke-linecap: butt; stroke-linejoin: miter; stroke-miterlimit: 10; fill: none; fill-rule: nonzero; opacity: 1;" transform="translate(1.4065934065934016 1.4065934065934016) scale(2.81 2.81)" >
	<path d="M 31.452 44.649 c -1.136 0 -2.252 -0.483 -3.033 -1.39 L 0.969 11.373 c -1.037 -1.205 -1.263 -2.908 -0.575 -4.341 S 2.557 4.73 4.141 4.766 l 82 2.881 c 1.809 0.063 3.35 1.334 3.757 3.098 c 0.407 1.764 -0.421 3.582 -2.02 4.431 l -54.55 29.005 C 32.734 44.497 32.09 44.649 31.452 44.649 z M 12.996 13.082 l 19.4 22.535 l 38.552 -20.499 L 12.996 13.082 z" style="stroke: none; stroke-width: 1; stroke-dasharray: none; stroke-linecap: butt; stroke-linejoin: miter; stroke-miterlimit: 10; fill: rgb(15,74,137); fill-rule: nonzero; opacity: 1;" transform=" matrix(1 0 0 1 0 0) " stroke-linecap="round" />
	<path d="M 42.536 85.236 c -0.193 0 -0.388 -0.014 -0.583 -0.042 c -1.572 -0.231 -2.858 -1.371 -3.277 -2.904 L 27.591 41.703 c -0.492 -1.804 0.33 -3.708 1.981 -4.585 l 54.55 -29.005 c 1.597 -0.851 3.567 -0.521 4.803 0.803 c 1.235 1.324 1.427 3.312 0.468 4.848 L 45.927 83.355 C 45.19 84.536 43.901 85.236 42.536 85.236 z M 36.151 42.68 l 7.833 28.683 l 30.717 -49.182 L 36.151 42.68 z" style="stroke: none; stroke-width: 1; stroke-dasharray: none; stroke-linecap: butt; stroke-linejoin: miter; stroke-miterlimit: 10; fill: rgb(15,74,137); fill-rule: nonzero; opacity: 1;" transform=" matrix(1 0 0 1 0 0) " stroke-linecap="round" />
</g>
</svg>